<?xml version="1.0" standalone="no"?>
<!DOCTYPE svg PUBLIC "-//W3C//DTD SVG 20010904//EN"
 "http://www.w3.org/TR/2001/REC-SVG-20010904/DTD/svg10.dtd">
<svg version="1.0" xmlns="http://www.w3.org/2000/svg"
 width="1260.000000pt" height="1260.000000pt" viewBox="0 0 1260.000000 1260.000000"
 preserveAspectRatio="xMidYMid meet">
<metadata>
Created by potrace 1.11, written by Peter Selinger 2001-2013
</metadata>
<g transform="translate(0.000000,1260.000000) scale(0.100000,-0.100000)"
fill="#000000" stroke="none">
<path d="M0 6300 l0 -6300 6300 0 6300 0 0 6300 0 6300 -6300 0 -6300 0 0
-6300z m9015 4945 c182 -46 345 -175 423 -335 79 -160 72 100 72 -2860 0
-2961 6 -2712 -72 -2864 -83 -159 -238 -281 -414 -326 -76 -20 -122 -20 -2729
-20 -2607 0 -2653 0 -2729 20 -188 48 -338 170 -426 348 -64 129 -60 -73 -60
2842 0 2960 -7 2700 72 2860 77 158 239 288 418 334 85 23 5357 23 5445 1z
m-4385 -6725 c278 -46 337 -66 415 -145 60 -60 106 -157 112 -238 4 -49 -36
-314 -187 -1237 -115 -706 -200 -1195 -212 -1227 -39 -105 -137 -197 -244
-229 -75 -22 -162 -17 -429 27 -284 46 -343 66 -420 144 -63 62 -107 158 -112
243 -4 54 34 302 187 1242 167 1028 195 1183 219 1235 47 101 107 159 210 201
82 34 172 31 461 -16z m3835 3 c73 -37 148 -115 180 -186 19 -41 63 -288 215
-1222 211 -1293 209 -1274 158 -1385 -43 -94 -126 -173 -219 -205 -23 -8 -154
-33 -293 -56 -298 -49 -377 -50 -465 -6 -101 51 -175 134 -204 228 -9 30 -103
583 -208 1229 -181 1111 -191 1178 -181 1238 21 129 104 240 217 293 90 42
490 109 635 105 95 -2 111 -5 165 -33z m-1773 -125 c80 -37 152 -107 191 -187
l32 -66 0 -1260 0 -1260 -27 -57 c-37 -80 -107 -152 -187 -191 l-66 -32 -335
0 -335 0 -56 26 c-103 49 -181 140 -213 248 -14 49 -16 189 -16 1267 0 1151 1
1215 18 1272 23 72 68 139 125 185 103 84 119 87 492 84 l320 -2 57 -27z"/>
</g>
</svg>
